<?xml version="1.0" encoding="UTF-8"?>
<!DOCTYPE svg PUBLIC "-//W3C//DTD SVG 1.1//EN" "http://www.w3.org/Graphics/SVG/1.1/DTD/svg11.dtd">
<!-- Creator: CorelDRAW 2017 -->
<svg xmlns="http://www.w3.org/2000/svg" xml:space="preserve" width="2.35521in" height="1.03743in" version="1.1" style="shape-rendering:geometricPrecision; text-rendering:geometricPrecision; image-rendering:optimizeQuality; fill-rule:evenodd; clip-rule:evenodd"
viewBox="0 0 587 258"
 xmlns:xlink="http://www.w3.org/1999/xlink">
 <defs>
  <style type="text/css">
   <![CDATA[
    .fil0 {fill:black;fill-rule:nonzero}
   ]]>
  </style>
 </defs>
 <g id="Layer_x0020_1">
  <metadata id="CorelCorpID_0Corel-Layer"/>
  <path class="fil0" d="M62 127c3,0 5,1 7,3 2,2 3,4 3,7 0,3 -1,5 -3,7 -2,2 -4,3 -7,3 -3,0 -5,-1 -7,-3 -2,-2 -3,-4 -3,-7 0,-3 1,-5 3,-7 2,-2 4,-3 7,-3zm45 -61c2,0 4,1 5,2 1,1 2,3 2,5l0 128c0,8 -2,15 -5,22 -3,7 -7,13 -12,18 -5,5 -11,9 -18,12 -7,3 -14,5 -22,5 -8,0 -15,-2 -22,-5 -7,-3 -13,-7 -18,-12 -5,-5 -9,-11 -12,-18 -3,-7 -5,-14 -5,-22 0,-5 1,-10 2,-14 1,-2 2,-4 3,-5 2,-1 4,-1 6,-1 2,1 3,2 4,3 1,2 1,4 1,6 -1,2 -1,4 -1,5 0,2 0,3 0,5 0,6 1,11 3,16 2,5 5,10 9,13 4,4 8,7 13,9 5,2 11,3 16,3 6,0 11,-1 16,-3 5,-2 10,-5 13,-9 4,-4 7,-8 9,-13 2,-5 3,-11 3,-16l0 -79c0,-6 -1,-11 -3,-16 -2,-5 -5,-10 -9,-13 -4,-4 -8,-7 -13,-9 -5,-2 -11,-3 -16,-3 -6,0 -11,1 -16,3 -5,2 -10,5 -13,9 -4,4 -7,8 -9,13 -2,5 -3,11 -3,16 0,6 1,11 3,16 2,5 5,10 9,13 4,4 8,7 13,9 5,2 10,3 16,3 8,0 15,-2 22,-6 2,-1 4,-1 6,-1 2,0 3,2 5,3 1,2 2,4 1,6 -1,2 -2,4 -4,5 -9,5 -19,8 -30,8 -8,0 -15,-2 -22,-5 -7,-3 -13,-7 -18,-12 -5,-5 -9,-11 -12,-18 -3,-7 -4,-14 -4,-22 0,-8 2,-15 5,-22 3,-7 7,-13 12,-18 5,-5 11,-9 18,-12 7,-3 14,-5 22,-5 8,0 16,2 23,5 7,3 14,8 19,14l0 -11c0,-2 1,-4 2,-5 1,-1 3,-2 5,-2zm-45 130c3,0 5,1 7,3 2,2 3,4 3,7 0,3 -1,5 -3,7 -2,2 -4,3 -7,3 -3,0 -5,-1 -7,-3 -2,-2 -3,-4 -3,-7 0,-3 1,-5 3,-7 2,-2 4,-3 7,-3zm134 -129c8,0 15,2 22,5 7,3 13,7 18,12 5,5 9,11 12,18 3,7 4,14 4,22 0,8 -2,15 -5,22 -3,7 -7,13 -12,18 -5,5 -11,9 -18,12 -7,3 -14,5 -22,5 -8,0 -15,-1 -22,-4 -7,-3 -13,-7 -18,-12 -5,-5 -9,-11 -12,-18 -3,-7 -5,-14 -5,-22 0,-10 2,-19 7,-28 1,-2 2,-3 4,-4 2,-1 4,0 6,1 2,1 3,3 4,5 1,2 0,4 -1,6 -4,6 -5,13 -5,20 0,6 1,11 3,16 2,5 5,10 9,13 4,4 8,7 13,9 5,2 11,3 16,3 6,0 11,-1 16,-3 5,-2 10,-5 13,-9 4,-4 7,-8 9,-13 2,-5 3,-11 3,-16 0,-6 -1,-11 -3,-16 -2,-5 -5,-10 -9,-13 -4,-4 -8,-7 -13,-9 -5,-2 -11,-3 -16,-3 -7,0 -14,2 -20,5 -2,1 -4,1 -6,1 -2,-1 -3,-2 -5,-4 -1,-2 -1,-4 -1,-6 1,-2 2,-3 4,-4 9,-5 18,-7 28,-7zm188 0c2,0 4,1 5,2 1,1 2,3 2,5l0 128c0,8 -2,15 -5,22 -3,7 -7,13 -12,18 -5,5 -11,9 -18,12 -7,3 -14,5 -22,5 -8,0 -15,-2 -22,-5 -7,-3 -13,-7 -18,-12 -5,-5 -9,-11 -12,-18 -3,-7 -5,-14 -5,-22 0,-5 1,-10 2,-14 1,-2 2,-4 3,-5 2,-1 4,-1 6,-1 2,1 3,2 4,3 1,2 1,4 1,6 -1,2 -1,4 -1,5 0,2 0,3 0,5 0,6 1,11 3,16 2,5 5,10 9,13 4,4 8,7 13,9 5,2 11,3 16,3 6,0 11,-1 16,-3 5,-2 10,-5 13,-9 4,-4 7,-8 9,-13 2,-5 3,-11 3,-16l0 -79c0,-6 -1,-11 -3,-16 -2,-5 -5,-10 -9,-13 -4,-4 -8,-7 -13,-9 -5,-2 -11,-3 -16,-3 -6,0 -11,1 -16,3 -5,2 -10,5 -13,9 -4,4 -7,8 -9,13 -2,5 -3,11 -3,16 0,6 1,11 3,16 2,5 5,10 9,13 4,4 8,7 13,9 5,2 10,3 16,3 8,0 15,-2 22,-6 2,-1 4,-1 6,-1 2,0 3,2 5,3 1,2 2,4 1,6 -1,2 -2,4 -4,5 -9,5 -19,8 -29,8 -8,0 -15,-2 -22,-5 -7,-3 -13,-7 -18,-12 -5,-5 -9,-11 -12,-18 -3,-7 -4,-14 -4,-22 0,-8 2,-15 5,-22 3,-7 7,-13 12,-18 5,-5 11,-9 18,-12 7,-3 14,-5 22,-5 8,0 16,2 23,5 7,3 14,8 19,14l0 -11c0,-2 1,-4 2,-5 1,-1 3,-2 5,-2zm89 0c8,0 15,2 22,5 7,3 13,7 18,12 5,5 9,11 12,18 3,7 4,14 4,22 0,8 -2,15 -5,22 -3,7 -7,13 -12,18 -5,5 -11,9 -18,12 -7,3 -14,5 -22,5 -8,0 -15,-1 -22,-4 -7,-3 -13,-7 -18,-12 -5,-5 -9,-11 -12,-18 -3,-7 -5,-14 -5,-22 0,-10 2,-19 7,-28 1,-2 2,-3 4,-4 2,-1 4,0 6,1 2,1 3,3 4,5 1,2 0,4 -1,6 -4,6 -5,13 -5,20 0,6 1,11 3,16 2,5 5,10 9,13 4,4 8,7 13,9 5,2 11,3 16,3 6,0 11,-1 16,-3 5,-2 10,-5 13,-9 4,-4 7,-8 9,-13 2,-5 3,-11 3,-16 0,-6 -1,-11 -3,-16 -2,-5 -5,-10 -9,-13 -4,-4 -8,-7 -13,-9 -5,-2 -11,-3 -16,-3 -7,0 -14,2 -20,5 -2,1 -4,1 -6,1 -2,-1 -3,-2 -5,-4 -1,-2 -1,-4 -1,-6 1,-2 2,-3 4,-4 9,-5 18,-7 28,-7zm88 70c-2,0 -4,-1 -6,-2 -1,-2 -2,-3 -2,-5l0 -121c0,-2 1,-4 2,-6 1,-1 3,-2 6,-2 2,0 4,1 5,2 2,1 2,3 2,6l0 121c0,2 -1,4 -2,5 -2,2 -3,2 -5,2zm18 29c2,0 4,1 5,2 2,2 2,3 2,5 0,2 -1,4 -2,6 -2,1 -3,2 -5,2 -7,0 -13,-3 -18,-8 -5,-5 -8,-11 -8,-18 0,-2 1,-4 2,-5 1,-2 3,-2 6,-2 2,0 4,1 5,2 2,2 2,3 2,5 0,3 1,5 3,7 2,2 4,3 7,3z"/>
 </g>
</svg>
